<svg xmlns="http://www.w3.org/2000/svg" viewBox="0 0 64 64"><path fill="#fd0000" fill-rule="evenodd" d="M22 20 C21.34853156880532 20.766611688801184 20.704100877196574 21.537694788437356 20.0625 22.3125 C19.88009765625 22.52583984375 19.6976953125 22.7391796875 19.509765625 22.958984375 C17.14069204459794 25.84494673658069 16.85174021712931 28.58720722854189 16.9375 32.1875 C16.94253007400542 32.559238695045494 16.94709029486069 32.93098405591178 16.951171875 33.302734375 C16.961187398348798 34.20212837172206 16.980772292867616 35.10057058858509 17 36 C18.32 35.01 19.64 34.019999999999996 21 33 C21.66 33.33 22.32 33.66 23 34 C23 33.01 23 32.019999999999996 23 31 C24.32 31 25.64 31 27 31 C26.9394140625 30.708671875 26.878828125 30.41734375 26.81640625 30.1171875 C26.126755383233917 26.757741326075077 25.54678300897352 23.385401183219034 25 20 C24.009999999999998 20 23.02 20 22 20 Z M29.64453125 19.2890625 C28.310059372385474 20.761025419550567 27.16842976924213 22.395356450240804 26 24 C26.66 24.33 27.32 24.66 28 25 C28 27.310000000000002 28 29.62 28 32 C28.990000000000002 31.67 29.98 31.34 31 31 C31 32.980000000000004 31 34.96 31 37 C32.68277901198172 37.84138950599086 33.427658522708384 38.14569960357998 35.1640625 38.09765625 C35.36099700927734 38.096241302490235 35.55793151855469 38.09482635498047 35.760833740234375 38.09336853027344 C36.38238508551702 38.087824755541604 37.00355981990391 38.07528584221471 37.625 38.0625 C38.04947391831102 38.05747759867647 38.473953553074395 38.052915990436496 38.8984375 38.048828125 C39.93254918797312 38.03872937804714 40.96585920120377 38.01915075553326 42 38 C42 39.65 42 41.3 42 43 C34.323719052054656 42.434994549516716 34.323719052054656 42.434994549516716 31 40.4375 C27.525572219222244 38.36892413332376 23.90302732918716 38.70928558854412 20 39 C19.67 38.34 19.34 37.68 19 37 C17.492610663925085 40.68267945508633 16.537337857616098 43.19707842980185 18 47 C20.31 45.68 22.62 44.36 25 43 C25 42.34 25 41.68 25 41 C25.2307421875 41.121171875 25.461484374999998 41.24234375 25.69921875 41.3671875 C31.262400906910038 44.24741270578521 35.71423006399267 45.674494504070125 42 45 C42.66 44.34 43.32 43.68 44 43 C44 41.35 44 39.7 44 38 C41.55289396235406 35.74113288832683 40.126028933867225 34.716328255889835 36.75 34.8125 C35.82860020994661 34.85205920386633 34.91904382590998 34.9172860556681 34 35 C33.67 33.68 33.34 32.36 33 31 C33.5775 31.185625 34.155 31.37125 34.75 31.5625 C37.023519742440754 32.208818321429646 38.81387682285998 31.75584046018139 41 31 C41 31.66 41 32.32 41 33 C42.32 32.67 43.64 32.34 45 32 C45.66 33.32 46.32 34.64 47 36 C47.35935018344877 30.75614917485873 47.30023593359361 26.42679349517043 44 22 C43.36081013022066 21.292447577303086 42.69925187557813 20.65060826684226 42 20 C41.010000000000005 20 40.019999999999996 20 39 20 C38.67 21.32 38.34 22.64 38 24 C37.34 22.68 36.68 21.36 36 20 C34 23 34 23 35 29 C34.34 29 33.68 29 33 29 C33.03552978515625 28.7378369140625 33.0710595703125 28.475673828125 33.107666015625 28.20556640625 C33.238749128091804 27.226006183956365 33.361642282546434 26.245557631691078 33.482177734375 25.2646484375 C33.53531176499695 24.841514211878447 33.590617272023024 24.418646459454955 33.648193359375 23.99609375 C33.73092996158455 23.386001239793934 33.805617013048035 22.77535319251253 33.87890625 22.1640625 C33.89242378234863 22.070791778564455 33.89242378234863 22.070791778564455 33.96083068847656 21.598785400390625 C34.12236988547309 20.15161114596469 33.75853335901037 19.229327481458753 33 18 C30.942934782608695 18 30.942934782608695 18 29.64453125 19.2890625 Z M30.000 22.000 C30.330 22.000 30.660 22.000 31.000 22.000 C31.000 24.310 31.000 26.620 31.000 29.000 C30.340 29.000 29.680 29.000 29.000 29.000 C29.330 26.690 29.660 24.380 30.000 22.000 Z"/></svg>
