<svg xmlns="http://www.w3.org/2000/svg" viewBox="0 0 64 64"><path fill="#56bf00" fill-rule="evenodd" d="M21 21 C20.791171875 21.203671875 20.58234375 21.40734375 20.3671875 21.6171875 C17.215698155438957 24.848461384929678 16.464191666391567 28.286262631725606 16.50634765625 32.6583251953125 C16.643952431458434 36.952074198473326 17.876677304819967 39.9537963837133 21 43 C21.203671875 43.208828125 21.40734375 43.41765625 21.6171875 43.6328125 C24.848461384929678 46.78430184456104 28.286262631725606 47.53580833360843 32.6583251953125 47.49365234375 C36.952074198473326 47.35604756854157 39.9537963837133 46.12332269518003 43 43 C43.208828125 42.796328125 43.41765625 42.592656250000005 43.6328125 42.3828125 C46.78430184456104 39.15153861507032 47.53580833360843 35.71373736827439 47.49365234375 31.3416748046875 C47.35604756854157 27.047925801526667 46.123322695180036 24.046203616286697 43 21 C42.796328125 20.791171875 42.592656250000005 20.58234375 42.3828125 20.3671875 C39.15153861507032 17.215698155438957 35.713737368274394 16.46419166639157 31.3416748046875 16.50634765625 C27.047925801526667 16.643952431458434 24.0462036162867 17.876677304819967 21 21 Z M35.000 18.750 C35.173 18.795 35.346 18.840 35.524 18.886 C38.478 19.660 40.811 20.840 43.000 23.000 C42.670 23.660 42.340 24.320 42.000 25.000 C40.680 25.000 39.360 25.000 38.000 25.000 C37.670 25.495 37.670 25.495 36.000 28.000 C34.680 27.670 33.360 27.340 32.000 27.000 C30.680 27.990 29.360 28.980 28.000 30.000 C26.680 28.680 25.360 27.360 24.000 26.000 C22.680 26.330 21.360 26.660 20.000 27.000 C20.787 24.028 21.633 21.850 24.375 20.250 C24.572 20.135 24.769 20.020 24.971 19.901 C28.391 18.104 31.334 17.724 35.000 18.750 Z M37.000 28.000 C39.310 28.000 41.620 28.000 44.000 28.000 C46.424 33.132 46.424 33.132 45.289 36.301 C45.194 36.532 45.098 36.762 45.000 37.000 C40.829 35.649 38.555 32.353 36.000 29.000 C36.330 28.670 36.660 28.340 37.000 28.000 Z M20.000 30.000 C20.254 30.084 20.508 30.168 20.770 30.254 C23.131 30.973 24.694 31.136 27.000 30.000 C25.553 33.865 22.976 36.180 20.000 39.000 C19.340 36.690 18.680 34.380 18.000 32.000 C18.660 31.340 19.320 30.680 20.000 30.000 Z M34.000 34.000 C36.592 33.431 38.246 34.591 40.374 35.933 C41.994 36.977 41.994 36.977 43.000 41.000 C39.132 44.522 35.870 45.593 30.696 45.484 C26.502 45.286 24.230 43.720 21.000 41.000 C22.650 39.020 24.300 37.040 26.000 35.000 C26.660 35.660 27.320 36.320 28.000 37.000 C28.660 36.340 29.320 35.680 30.000 35.000 C30.990 35.000 31.980 35.000 33.000 35.000 C33.330 35.330 33.660 35.660 34.000 36.000 C34.000 35.340 34.000 34.680 34.000 34.000 Z"/></svg>
